# xmcd
#
# Track frame offsets:
#	150
#	9900
#	17500
#	29389
#	41857
#	51745
#	59959
#	72972
#	84044
#	93721
#	107115
#	120190
#	134186
#	147280
#	159724
#
# Disc length: 2274 seconds
#
# Revision: 4
# Processed by: cddbd v1.5.2PL0 Copyright (c) Steve Scherf et al.
# Submitted via: audiograbber 1.83.01
#
DISCID=d708e00f
DTITLE=Various Artist - MOJO Presents - The Rolling Stones Uncovered
DYEAR=2013
DGENRE=Rock 50´s
TTITLE0=Freddy Cannon - Tallahassie Lassie
TTITLE1=Eddie Cochran - Twenty Flight Rock
TTITLE2=Chuck Berry - Around and Around
TTITLE3=Hank Snow - I'm Moving On
TTITLE4=Bo Diddley - Who Do You Love
TTITLE5=Larry Williams - She Said 'Yeah'
TTITLE6=Muddy Waters - Mannish Boy
TTITLE7=Solomon Burke - Cry To Me
TTITLE8=Buddy Holly - Learning The Game
TTITLE9=Nat King Cole - Route 66
TTITLE10=Boogaloo and His Gallant Crew - Cops and Robbers
TTITLE11=Will Bradley Trio - Down The Road A Piece
TTITLE12=Jay McShann - Confessin' The Blues
TTITLE13=Muddy Waters - I Just Want To Make Love To You
TTITLE14=Howlin' Wolf - The Red Rooster
EXTD=
EXTT0=1959
EXTT1=1958
EXTT2=1958
EXTT3=1950
EXTT4=1957
EXTT5=1959
EXTT6=1955
EXTT7=1962
EXTT8=1959
EXTT9=1946
EXTT10=1958
EXTT11=1940
EXTT12=1941
EXTT13=1954
EXTT14=1961
PLAYORDER=
